# ProBuilder 5.2.3
# https://unity3d.com/unity/features/worldbuilding/probuilder
# 11/16/2024 5:36:19 AM

mtllib ./Hole_Collider.mtl
o Hole Collider

g Hole Collider
v -0.5447251 0.8250501 0
v -0.6121325 0.8250501 0.250496
v -0.5173464 0.8250501 -0.1017433
v 1.398588 0.8250501 1.302685
v 0.09535986 0.8250501 0.9549737
v 0.8182164 0.8250501 0.76211
v 1.932083 0.8250501 0.4649219
v 1.313379 0.8250501 0
v 0.4491057 0.8250501 0.8605914
v 0.6786039 0.8250501 0.632071
v 1.932083 0.8250501 1.445025
v 1.612408 0.8250501 -0.2977544
v 1.932083 0.8250501 0
v 1.932083 0.8250501 -0.6160674
v 1.354523 0.8250501 -1.799597
v 1.932083 0.8250501 -1.799597
v 1.083061 0.8250501 -0.7908033
v 0.2511805 0.8250501 -1.799597
v 0.8702589 0.8250501 0
v 0.7080657 0.8250501 0.6027348
v 0.3351949 0.8250501 -1.487387
v 0.7354442 0.8250501 0
v 0.8028517 0.8250501 0.2504957
v -1.788139E-07 0.8250501 -0.8067925
v 0.7080656 0.8250501 -0.1017432
v -1.788139E-07 0.8250501 -1.799597
v -0.9970521 0.8250501 -1.799597
v -1.163804 0.8250501 -1.799597
v -1.788139E-07 0.8250501 -0.4794249
v 0.4491056 0.8250501 -0.3596
v -0.7213511 0.8250501 -0.6718867
v -0.9068312 0.8250501 -0.8446482
v -0.871093 0.8250501 -0.711839
v -0.7416126 0.8250501 -0.2306715
v -1.932083 0.8250501 0
v -1.932083 0.8250501 -1.799597
v -0.6795399 0.8250501 0
v -1.932083 0.8250501 1.799597
v -0.3576421 0.8250501 -0.3331178
v -1.788139E-07 0.8250501 -0.4285394
v 0.09535968 0.8250501 -0.4539821
v -0.3200997 0.8250501 -0.2981496
v -0.2583862 0.8250501 -0.3596
v -0.619525 0.8250501 0
v -0.6668572 0.8250501 0.04713053
v -0.2605914 0.8250501 1.556875
v -0.1952757 0.8250501 1.799597
v -1.788139E-07 0.8250501 1.799597
v -0.5173466 0.8250501 0.6027347
v -1.788139E-07 0.8250501 1.117877
v 0.6846366 0.8250501 1.799597
v -0.2583863 0.8250501 0.8605917
v -1.788139E-07 0.8250501 0.929531
v 1.932083 0.8250501 1.799597
v -0.6109524 0.8250501 0.2548808
v -0.5173464 -0.8250501 0.6027348
v -0.6121325 -0.8250501 0.2504958
v -0.5141227 0.8250501 0.6059449
v -0.2583863 -0.8250501 0.8605917
v -0.2539825 0.8250501 0.8617666
v 0.09535968 -0.8250501 0.9549737
v 0.09976351 0.8250501 0.9537988
v 0.4491057 -0.8250501 0.8605915
v 0.4523295 0.8250501 0.8573815
v 0.7080657 -0.8250501 0.6027348
v 0.8016717 0.8250501 0.2461107
v 0.7080657 -0.8250501 -0.1017431
v 0.8028517 -0.8250501 0.2504957
v 0.7092457 0.8250501 0.5983498
v 0.7048419 0.8250501 -0.1049532
v 0.4491056 -0.8250501 -0.3596
v 0.09095585 0.8250501 -0.4528072
v -0.2583863 -0.8250501 -0.3596
v 0.09535962 -0.8250501 -0.4539821
v 0.4447018 0.8250501 -0.360775
v -0.2616101 0.8250501 -0.3563899
v -0.5173464 -0.8250501 -0.1017433
v -0.5185265 0.8250501 -0.09735826

vt 2.476808 -1.799597
vt 2.544216 -1.549101
vt 2.449429 -1.90134
vt 0.5334948 -0.4969121
vt 1.836723 -0.8446231
vt 1.113867 -1.037487
vt 1.192093E-07 -1.334675
vt 0.6187035 -1.799597
vt 1.482977 -0.9390051
vt 1.253479 -1.167526
vt 1.192093E-07 -0.3545717
vt 0.3196752 -2.097351
vt 1.192093E-07 -1.799597
vt 1.192093E-07 -2.415664
vt 0.5775604 -3.599194
vt 1.192093E-07 -3.599194
vt 0.8490223 -2.5904
vt 1.680902 -3.599194
vt 1.061824 -1.799597
vt 1.224017 -1.196862
vt 1.596888 -3.286983
vt 1.196639 -1.799597
vt 1.129231 -1.549101
vt 1.932083 -2.606389
vt 1.224017 -1.90134
vt 1.932083 -3.599194
vt 2.929135 -3.599194
vt 3.095887 -3.599194
vt 1.932083 -2.279022
vt 1.482977 -2.159197
vt 2.653434 -2.471483
vt 2.838914 -2.644245
vt 2.803176 -2.511436
vt 2.673696 -2.030268
vt 3.864166 -1.799597
vt 3.864166 -3.599194
vt 2.611623 -1.799597
vt 3.864166 0
vt 2.289725 -2.132715
vt 1.932083 -2.228136
vt 1.836723 -2.253579
vt 2.252182 -2.097746
vt 2.190469 -2.159197
vt 2.551608 -1.799597
vt 2.59894 -1.752466
vt 2.192674 -0.2427221
vt 2.127359 0
vt 1.932083 0
vt 2.44943 -1.196862
vt 1.932083 -0.68172
vt 1.247446 0
vt 2.190469 -0.9390051
vt 1.932083 -0.8700658
vt 1.192093E-07 0
vt -0.677361 1.6501
vt -0.3171326 1.6501
vt -0.677361 0
vt -0.3125916 1.6501
vt -0.3125916 0
vt -0.1755487 1.6501
vt 0.1853475 1.6501
vt -0.1755487 0
vt 0.1898969 1.6501
vt 0.189897 0
vt 0.3203655 1.6501
vt 0.681928 1.6501
vt 0.3203655 0
vt 0.6864859 1.6501
vt 0.6864859 0
vt 0.6806736 1.6501
vt 1.042236 1.6501
vt 0.6806737 0
vt 1.046794 1.6501
vt 1.046794 0
vt 0.8127817 1.6501
vt 1.173678 1.6501
vt 0.8127817 0
vt 1.178227 1.6501
vt 1.178227 0
vt 0.3155087 1.6501
vt 0.675737 1.6501
vt 0.3155087 0
vt 0.680278 1.6501
vt 0.680278 0
vt 1.040506 1.6501
vt 1.045048 1.6501
vt 1.045048 0
vt -0.1840741 1.6501
vt 0.1768221 1.6501
vt -0.1840741 0
vt 0.1813715 1.6501
vt 0.1813715 0
vt -1.0497 1.6501
vt -0.6881374 1.6501
vt -1.0497 0
vt -0.6835796 1.6501
vt -0.6835796 0
vt -0.322017 1.6501
vt -0.3174591 0
vt -1.18405 1.6501
vt -0.823154 1.6501
vt -1.18405 0
vt -0.8186046 1.6501
vt -0.8186046 0
vt -1.047964 1.6501
vt -1.047964 0
vt -0.6831949 1.6501
vt -0.6831949 0

vn 0 1 0
vn 0.8652239 3.088058E-07 -0.5013856
vn 0.9656435 -4.249101E-06 -0.2598706
vn 0.9064742 -1.416849E-06 -0.4222612
vn 1 -2.239901E-06 -1.004577E-05
vn 0.9960008 9.22578E-07 0.08934388
vn 0.4986089 -1.198282E-06 -0.8668271
vn 0.705597 4.503521E-07 -0.7086133
vn 0.5735965 1.634993E-07 -0.8191379
vn -1.233794E-07 2.377603E-08 -1
vn 0.2577794 -2.329199E-06 -0.9662038
vn 0.08858244 -7.955996E-07 -0.9960688
vn -0.4986087 1.332947E-06 -0.8668272
vn -0.25779 4.24621E-08 -0.966201
vn -0.4196941 4.599451E-09 -0.9076656
vn -0.865223 1.274898E-07 -0.5013872
vn -0.7055873 2.623129E-06 -0.7086231
vn -0.817077 8.973463E-07 -0.5765286
vn -0.8652236 1.465127E-07 0.5013862
vn -0.9656483 -1.383556E-07 0.2598526
vn -0.9064768 -4.649876E-08 0.4222556
vn -1 -6.655708E-08 4.475062E-07
vn -0.9960011 8.466555E-08 -0.08934013
vn -0.9656482 2.462562E-07 -0.2598529
vn -0.4986145 2.334509E-07 0.8668239
vn -0.7055967 2.96175E-07 0.7086136
vn -0.5735965 1.040075E-07 0.819138
vn 0.4986116 5.189474E-07 0.8668256
vn 0.2577849 1.126049E-06 0.9662024
vn 0.4196924 3.646817E-07 0.9076664
vn -2.56012E-06 5.899478E-07 1
vn -0.0885869 1.550001E-07 0.9960684
vn -0.2577918 4.557131E-07 0.9662005
vn 0.8652201 1.389219E-06 0.5013922
vn 0.7055921 1.046785E-06 0.7086183
vn 0.8170782 3.510885E-07 0.5765268
vn 0.9656454 2.66696E-06 0.2598636

usemtl Lit
f 3/3/1 2/2/1 1/1/1
f 6/6/1 5/5/1 4/4/1
f 8/8/1 9/9/1 6/6/1
f 9/9/1 8/8/1 10/10/1
f 7/7/1 4/4/1 11/11/1
f 14/14/1 12/12/1 13/13/1
f 15/15/1 14/14/1 16/16/1
f 19/19/1 20/20/1 8/8/1
f 22/22/1 23/23/1 19/19/1
f 21/21/1 24/24/1 25/25/1
f 27/27/1 24/24/1 26/26/1
f 28/28/1 24/24/1 27/27/1
f 30/30/1 24/24/1 29/29/1
f 28/28/1 32/32/1 31/31/1
f 33/33/1 31/31/1 32/32/1
f 32/32/1 35/35/1 37/37/1
f 41/41/1 29/29/1 40/40/1
f 43/43/1 39/39/1 42/42/1
f 34/34/1 37/37/1 44/44/1
f 2/2/1 3/3/1 44/44/1
f 4/4/1 52/52/1 50/50/1
f 52/52/1 4/4/1 53/53/1
f 56/57/4 55/56/3 49/55/2
f 59/62/9 58/61/8 52/60/7
f 61/67/12 60/66/11 5/65/10
f 63/72/15 62/71/14 9/70/13
f 65/77/18 64/76/17 20/75/16
f 67/82/21 66/81/20 25/80/19
f 68/84/23 69/85/24 23/83/22
f 71/90/27 70/89/26 30/88/25
f 73/95/30 72/94/29 43/93/28
f 74/97/32 75/98/33 41/96/31
f 77/102/36 76/101/35 3/100/34
f 57/106/6 78/94/37 2/105/5
f 6/6/1 4/4/1 7/7/1
f 7/7/1 8/8/1 6/6/1
f 12/12/1 8/8/1 7/7/1
f 7/7/1 13/13/1 12/12/1
f 12/12/1 14/14/1 15/15/1
f 15/15/1 17/17/1 12/12/1
f 8/8/1 12/12/1 17/17/1
f 17/17/1 19/19/1 8/8/1
f 17/17/1 15/15/1 18/18/1
f 18/18/1 21/21/1 17/17/1
f 19/19/1 17/17/1 21/21/1
f 21/21/1 22/22/1 19/19/1
f 24/24/1 21/21/1 18/18/1
f 18/18/1 26/26/1 24/24/1
f 29/29/1 24/24/1 28/28/1
f 28/28/1 31/31/1 29/29/1
f 31/31/1 33/33/1 34/34/1
f 34/34/1 39/39/1 31/31/1
f 35/35/1 32/32/1 28/28/1
f 28/28/1 36/36/1 35/35/1
f 37/37/1 35/35/1 38/38/1
f 38/38/1 46/46/1 37/37/1
f 29/29/1 31/31/1 39/39/1
f 39/39/1 40/40/1 29/29/1
f 42/42/1 39/39/1 34/34/1
f 34/34/1 44/44/1 42/42/1
f 44/44/1 37/37/1 45/45/1
f 45/45/1 2/2/1 44/44/1
f 46/46/1 38/38/1 47/47/1
f 47/47/1 48/48/1 46/46/1
f 49/49/1 46/46/1 48/48/1
f 48/48/1 50/50/1 49/49/1
f 50/50/1 48/48/1 51/51/1
f 51/51/1 4/4/1 50/50/1
f 11/11/1 4/4/1 51/51/1
f 51/51/1 54/54/1 11/11/1
f 2/58/5 55/56/3 56/57/4
f 56/57/4 57/59/6 2/58/5
f 49/63/2 58/61/8 59/62/9
f 59/62/9 56/64/4 49/63/2
f 52/68/7 60/66/11 61/67/12
f 61/67/12 59/69/9 52/68/7
f 5/73/10 62/71/14 63/72/15
f 63/72/15 61/74/12 5/73/10
f 9/78/13 64/76/17 65/77/18
f 65/77/18 63/79/15 9/78/13
f 23/83/22 66/81/20 67/82/21
f 67/82/21 68/84/23 23/83/22
f 20/86/16 69/85/24 68/84/23
f 68/84/23 65/87/18 20/86/16
f 25/91/19 70/89/26 71/90/27
f 71/90/27 67/92/21 25/91/19
f 41/96/31 72/94/29 73/95/30
f 73/95/30 74/97/32 41/96/31
f 30/56/25 75/98/33 74/97/32
f 74/97/32 71/99/27 30/56/25
f 43/103/28 76/101/35 77/102/36
f 77/102/36 73/104/30 43/103/28
f 3/107/34 78/94/37 57/106/6
f 57/106/6 77/108/36 3/107/34

