# ProBuilder 5.2.3
# https://unity3d.com/unity/features/worldbuilding/probuilder
# 11/16/2024 4:41:03 AM

mtllib ./Hole_Trigger.mtl
o Hole Trigger

g Hole Trigger
v -0.5994461 1.5 0.3460906
v -0.692181 -1.5 1.788139E-07
v -0.692181 1.5 1.788139E-07
v -0.5994461 -1.5 0.3460906
v -0.34609 1.5 0.5994464
v -0.34609 -1.5 0.5994464
v 1.788139E-07 1.5 0.692181
v 1.788139E-07 -1.5 0.692181
v 0.3460906 1.5 0.5994464
v 0.3460906 -1.5 0.5994464
v 0.5994464 1.5 0.3460907
v 0.5994464 -1.5 0.3460907
v 0.692181 1.5 1.788139E-07
v 0.692181 -1.5 1.788139E-07
v 0.5994464 1.5 -0.34609
v 0.5994464 -1.5 -0.34609
v 0.3460905 1.5 -0.5994461
v 0.3460905 -1.5 -0.5994461
v 1.192093E-07 1.5 -0.692181
v 1.192093E-07 -1.5 -0.692181
v -0.34609 1.5 -0.5994461
v -0.34609 -1.5 -0.5994461
v -0.5994461 1.5 -0.34609
v -0.5994461 -1.5 -0.34609
v 1.192093E-07 1.5 1.788139E-07
v 1.192093E-07 -1.5 1.788139E-07

vt -0.6685951 1.5
vt -1.026894 -1.5
vt -1.026894 1.5
vt -0.6685951 -1.5
vt -0.7997421 1.5
vt -1.158041 -1.5
vt -1.158041 1.5
vt -0.7997421 -1.5
vt -0.3102962 1.5
vt -0.3102962 -1.5
vt 0.1791495 1.5
vt -0.1791496 -1.5
vt -0.1791496 1.5
vt 0.1791495 -1.5
vt 0.6685954 1.5
vt 0.3102961 -1.5
vt 0.3102961 1.5
vt 0.6685954 -1.5
vt 1.026894 1.5
vt 1.026894 -1.5
vt 1.158041 1.5
vt 0.7997418 -1.5
vt 0.7997418 1.5
vt 1.158041 -1.5
vt 0.3460905 -1.291627
vt 1.038271 -1.291627
vt 0.6921809 -1.384362
vt 0.6921809 -0.6921808
vt 1.291627 -1.038271
vt 0.09273463 -1.038271
vt 1.384362 -0.6921808
vt 1.291627 -0.3460904
vt 1.038271 -0.09273463
vt 0.6921808 0
vt 0 -0.6921808
vt 0.3460904 -0.09273463
vt 0.09273463 -0.3460903
vt -1.291627 -0.3460904
vt -1.291627 -1.038271
vt -1.384362 -0.6921808
vt -0.6921809 -0.6921808
vt -1.038271 -1.291627
vt -0.6921809 -1.384362
vt -0.3460905 -1.291627
vt -0.09273463 -1.038271
vt -0.09273463 -0.3460903
vt -1.038271 -0.09273463
vt -0.3460904 -0.09273463
vt -0.6921808 0

vn -0.8660251 0 0.5000005
vn -1 0 -9.256092E-08
vn -0.4999997 0 0.8660256
vn -1.079877E-07 0 1
vn 0.4999998 0 0.8660255
vn 0.8660254 0 0.5
vn 1 0 -1.388414E-07
vn 0.8660255 0 -0.4999998
vn 0.5000005 0 -0.8660251
vn -9.256092E-08 0 -1
vn -0.5000004 0 -0.8660252
vn -0.8660252 0 -0.5000004
vn 0 1 0
vn 0 -1 0

usemtl ProBuilderDefault
f 19/27/13 21/26/13 17/25/13
f 21/26/13 23/29/13 25/28/13
f 13/35/13 15/30/13 25/28/13
f 11/37/13 13/35/13 9/36/13
f 2/40/14 24/39/14 4/38/14
f 24/39/14 22/42/14 26/41/14
f 14/35/14 12/46/14 26/41/14
f 8/49/14 6/47/14 10/48/14
f 1/1/1 3/3/2 2/2/2
f 2/2/2 4/4/1 1/1/1
f 5/5/3 1/7/1 4/6/1
f 4/6/1 6/8/3 5/5/3
f 7/1/4 5/3/3 6/2/3
f 6/2/3 8/4/4 7/1/4
f 9/9/5 7/1/4 8/4/4
f 8/4/4 10/10/5 9/9/5
f 11/11/6 9/13/5 10/12/5
f 10/12/5 12/14/6 11/11/6
f 13/15/7 11/17/6 12/16/6
f 12/16/6 14/18/7 13/15/7
f 15/19/8 13/15/7 14/18/7
f 14/18/7 16/20/8 15/19/8
f 17/21/9 15/23/8 16/22/8
f 16/22/8 18/24/9 17/21/9
f 19/19/10 17/15/9 18/18/9
f 18/18/9 20/20/10 19/19/10
f 21/15/11 19/17/10 20/16/10
f 20/16/10 22/18/11 21/15/11
f 23/11/12 21/13/11 22/12/11
f 22/12/11 24/14/12 23/11/12
f 3/9/2 23/1/12 24/4/12
f 24/4/12 2/10/2 3/9/2
f 15/30/13 17/25/13 21/26/13
f 21/26/13 25/28/13 15/30/13
f 25/28/13 23/29/13 3/31/13
f 3/31/13 1/32/13 25/28/13
f 25/28/13 1/32/13 5/33/13
f 5/33/13 7/34/13 25/28/13
f 13/35/13 25/28/13 7/34/13
f 7/34/13 9/36/13 13/35/13
f 6/47/14 4/38/14 24/39/14
f 24/39/14 26/41/14 6/47/14
f 26/41/14 22/42/14 20/43/14
f 20/43/14 18/44/14 26/41/14
f 26/41/14 18/44/14 16/45/14
f 16/45/14 14/35/14 26/41/14
f 6/47/14 26/41/14 12/46/14
f 12/46/14 10/48/14 6/47/14

